<?xml version="1.0" standalone="no"?>
<svg xmlns="http://www.w3.org/2000/svg" viewBox="0 0 182.121 36" width="182.121" height="36"><g fill="#000000" color="#000000" transform="translate(0 3.9999999999999982) scale(0.2800001)"><svg width="100.0" height="100.0" x="0.0" y="0.0" viewBox="0 0 100 100"><path fill="none" stroke="currentColor" stroke-width="2" stroke-linecap="round" stroke-linejoin="round" stroke-miterlimit="10" d="  M67.817,61.754c-3.597,3.969-6.317,3.746-6.336,7.165c-0.407,1.693-0.714,3.398-0.923,5.123c-0.363,2.995-2.691,15.867-3.716,16.379  c-5.834,2.911-14.644,0.324-15.6-0.173c-1.069-0.556-1.654-1.573-1.867-2.724c-0.254-1.373-0.595-2.726-0.842-4.101  c-0.43-2.397-0.734-4.807-1.044-7.217c-0.21-1.632-0.36-3.271-0.563-4.905c-0.128-1.032-0.213-2.069-0.372-3.1  c-0.147-0.957-0.541-1.823-0.975-2.652c-0.257-0.492-0.899-0.773-1.42-0.849c-1.673-0.247-2.176-1.626-3.236-2.944"></path><path fill="none" stroke="currentColor" stroke-width="2" stroke-linecap="round" stroke-linejoin="round" stroke-miterlimit="10" d="  M30.497,32.436c-1.961,0.941,0,0-1.621,1.482c-1.194,1.092-2.16,2.359-2.425,3.972c-0.237,1.442-0.018,2.91,0.35,4.318  c0.403,1.544,1.262,2.914,2.402,3.966c0.919,0.848,2.186,1.308,3.425,1.66c2.657,0.754,5.352,1.367,8.078,1.786  c2.359,0.363,4.743,0.536,7.135,0.614c1.467,0.048,2.936,0.095,4.399,0.038c2.046-0.079,4.093-0.211,6.129-0.43  c3.306-0.356,6.528-1.131,9.75-1.95c1.275-0.324,1.662-1.189,2.135-2.082c1.09-2.056,1.331-4.185,0.073-6.258  c-0.927-1.527-2.408-2.346-4.097-2.822c-2.382-0.67-4.825-0.89-7.283-1.009c-3.124-0.152-6.254,0.052-9.373-0.101  c-2.022-0.099-4.045,0.004-6.057-0.141c-8.535-0.764-11.281-1.832-11.896-2.949c-0.453-0.823-5.269-6.072,3.361-11.519  c0,0,5.392-3.845,7.35-6.226"></path><path fill="none" stroke="currentColor" stroke-width="2" stroke-linecap="round" stroke-linejoin="round" stroke-miterlimit="10" d="  M67.566,56.317c-0.877,0.014-1.587,0.527-2.379,0.796c-2.508,0.852-5.086,1.378-7.717,1.655c-2.493,0.263-4.995,0.348-7.499,0.284  c-2.676-0.068-5.344-0.23-8.007-0.553c-2.3-0.279-4.591-0.583-6.847-1.106c-1.231-0.285-2.468-0.558-3.612-1.137  c-0.201-0.102-0.475-0.059-0.716-0.083"></path><path fill="none" stroke="currentColor" stroke-width="2" stroke-linecap="round" stroke-linejoin="round" stroke-miterlimit="10" d="  M67.288,53.418c-0.877,0.014-1.587,0.527-2.379,0.796c-2.508,0.852-5.086,1.378-7.717,1.655c-2.493,0.263-4.995,0.348-7.499,0.284  c-2.676-0.068-5.344-0.23-8.007-0.553c-2.3-0.279-4.591-0.583-6.847-1.106c-1.231-0.285-2.468-0.558-3.612-1.137  c-0.201-0.102-0.475-0.059-0.716-0.083"></path><path fill="none" stroke="currentColor" stroke-width="2" stroke-linecap="round" stroke-linejoin="round" stroke-miterlimit="10" d="  M66.875,54.867c-0.857,0.014-1.552,0.527-2.325,0.796c-2.452,0.852-4.972,1.378-7.543,1.655c-2.437,0.263-4.883,0.348-7.331,0.284  c-2.616-0.068-5.224-0.23-7.827-0.553c-2.248-0.279-4.487-0.583-6.693-1.106c-1.203-0.285-2.413-0.558-3.531-1.137  c-0.197-0.102-0.464-0.059-0.699-0.083"></path><path fill="none" stroke="currentColor" stroke-width="2" stroke-linecap="round" stroke-linejoin="round" stroke-miterlimit="10" d="  M31.132,61.018c3.31,1.244,6.739,1.961,10.292,2.116c2.139,0.093,4.275,0.233,6.418,0.214c1.49-0.013,2.98,0.043,4.471,0.064  c2.383,0.033,4.767-0.037,7.137-0.241c1.784-0.154,3.586-0.251,5.34-0.689c0.278-0.069,2.793-0.912,3.027-0.728"></path><path fill="none" stroke="currentColor" stroke-width="2" stroke-linecap="round" stroke-linejoin="round" stroke-miterlimit="10" d="  M50.189,7.552c0.107,0.845-0.865,3.143-1.545,3.593c-1.026,0.679-2.216,0.925-3.335,1.331c-2.171,0.787-3.435,2.356-3.757,4.506  C41.325,18.5,41.884,20,42.937,21.23c1.214,1.419,2.849,2.122,4.544,2.741c2.865,1.046,5.803,1.846,8.802,2.355  c2.831,0.48,5.686,0.703,8.58,0.584c1.014-0.042,2.061,0.497,2.897,1.298c1.204,1.154,1.922,2.549,2.278,4.129  c0.351,1.561-0.206,2.917-1.213,4.105c-0.248,0.293-0.59,0.516-0.647,0.94"></path><path fill="none" stroke="currentColor" stroke-width="2" stroke-linecap="round" stroke-linejoin="round" stroke-miterlimit="10" d="  M64.933,26.78c0.352-0.863,0.677-1.756,0.766-2.671c0.113-1.158-0.067-2.305-0.762-3.317c-1.015-1.479-2.445-2.492-3.907-3.445  c-1.387-0.905-2.873-1.654-4.309-2.48c-2.14-1.231-0.543-4.815-6.532-7.315"></path><path fill="none" stroke="currentColor" stroke-width="2" stroke-linecap="round" stroke-linejoin="round" stroke-miterlimit="10" d="  M69.259,47.692c0.236,0.826-0.218,1.402-0.727,1.941c-0.186,0.197-0.386,0.392-0.584,0.568c-0.692,0.614-0.392,1.406-0.4,2.106  c-0.028,2.451-0.029,4.906,0.089,7.353c0.033,0.688,0.003,1.407,0.18,2.093"></path><path fill="none" stroke="currentColor" stroke-width="2" stroke-linecap="round" stroke-linejoin="round" stroke-miterlimit="10" d="  M29.166,46.322c-0.521,0.897-0.555,1.752,0.127,2.61c0.131,0.165,0.232,0.4,0.385,0.556c0.638,0.651,0.848,1.38,0.822,2.315  c-0.033,1.198,0.219,2.406,0.295,3.606c0.117,1.851,0.43,3.689,0.39,5.551"></path><circle cx="64.25" cy="41" r="0.583"></circle><circle cx="64.99" cy="45.073" r="0.74"></circle><circle cx="62.24" cy="42.678" r="0.74"></circle><circle cx="66.241" cy="42.178" r="0.511"></circle><circle cx="61.5" cy="45.813" r="0.511"></circle><circle cx="64.25" cy="38.167" r="0.511"></circle><circle cx="67.817" cy="40.417" r="0.511"></circle><circle cx="67.817" cy="44.333" r="0.511"></circle><circle fill="none" cx="60.333" cy="42.678" r="0.5"></circle><circle cx="60.667" cy="39" r="0.833"></circle><circle fill="none" cx="54.985" cy="21.011" r="0.5"></circle><circle cx="60.667" cy="32.75" r="0.833"></circle><circle cx="66.241" cy="31.75" r="0.583"></circle><circle cx="67.306" cy="34.132" r="0.583"></circle><circle cx="62.98" cy="32.75" r="0.74"></circle><circle cx="64.99" cy="33.621" r="0.511"></circle><circle cx="65.73" cy="29.073" r="0.423"></circle><circle cx="64.25" cy="30.167" r="0.511"></circle><circle cx="61.624" cy="30.167" r="0.833"></circle><path fill="none" stroke="currentColor" stroke-miterlimit="10" d="M36.555,68.2c0,1.842,17.952,4.053,24.926,0.719"></path><path fill="none" stroke="currentColor" stroke-miterlimit="10" d="M36.533,71.677c0,1.842,17.952,4.053,24.926,0.719"></path><path fill="none" stroke="currentColor" stroke-miterlimit="10" d="M37.69,75.547c0,1.842,16.548,4.053,22.977,0.719"></path><line fill="none" stroke="currentColor" stroke-miterlimit="10" x1="56.85" y1="70.642" x2="54.985" y2="85.833"></line><line fill="none" stroke="currentColor" stroke-miterlimit="10" x1="52.835" y1="70.642" x2="51.5" y2="87.333"></line><line fill="none" stroke="currentColor" stroke-miterlimit="10" x1="48.502" y1="70.642" x2="48.502" y2="88.667"></line><path fill="none" stroke="currentColor" stroke-linecap="round" stroke-linejoin="round" stroke-miterlimit="10" d="M29.983,40.729  c0,2.154,2.236,3.898,5,3.898"></path></svg></g><path fill="#000000" fill-rule="nonzero" d="M0.82 22.15L0.82 22.15Q0.26 22.15 0.13 22.02Q0 21.89 0.09 21.52L0.09 21.52Q0.12 21.40 0.33 20.47Q0.54 19.55 0.86 18.22Q1.17 16.90 1.54 15.35Q1.90 13.80 2.23 12.45L2.23 12.45Q1.73 12.49 1.50 12.36Q1.27 12.23 1.28 12.01Q1.29 11.79 1.54 11.55Q1.78 11.32 2.25 11.16L2.25 11.16Q2.34 11.11 2.53 11.06L2.53 11.06Q2.65 10.66 2.74 10.24L2.74 10.24Q2.84 9.89 2.93 9.49Q3.02 9.09 3.12 8.72L3.12 8.72L4.76 1.71Q4.90 1.17 5.19 0.90Q5.48 0.63 6.28 0.45L6.28 0.45Q6.94 0.28 7.20 0.32Q7.45 0.35 7.43 0.47L7.43 0.47Q7.36 0.73 7.08 1.71Q6.80 2.70 6.41 4.11Q6.02 5.53 5.58 7.23Q5.13 8.93 4.71 10.59L4.71 10.59Q6.12 10.38 8.13 10.24L8.13 10.24Q8.91 10.15 9.64 10.13Q10.38 10.10 11.06 10.13L11.06 10.13Q11.39 8.86 11.71 7.59Q12.02 6.33 12.30 5.25Q12.59 4.17 12.81 3.34Q13.03 2.51 13.15 2.11L13.15 2.11Q13.29 1.66 13.42 1.38Q13.55 1.10 13.72 0.94Q13.90 0.77 14.13 0.70Q14.37 0.63 14.67 0.59L14.67 0.59Q14.84 0.59 15.07 0.56L15.07 0.56Q15.26 0.56 15.52 0.55Q15.77 0.54 16.10 0.59L16.10 0.59Q15.21 2.98 14.45 5.43Q13.69 7.88 13.03 10.20L13.03 10.20Q13.45 10.24 13.77 10.27Q14.09 10.29 14.27 10.34L14.27 10.34Q14.84 10.43 14.99 10.64Q15.14 10.85 14.88 11.25L14.88 11.25L14.60 11.60Q14.46 11.79 14.25 12.04Q14.04 12.28 13.71 12.59L13.71 12.59Q13.52 12.52 13.32 12.45Q13.13 12.38 12.94 12.30L12.94 12.30Q12.70 12.23 12.49 12.16L12.49 12.16Q12.33 12.73 12.19 13.25Q12.05 13.78 11.93 14.32L11.93 14.32Q11.65 15.47 11.39 16.69L11.39 16.69Q11.18 17.74 10.96 19.02Q10.73 20.30 10.62 21.54L10.62 21.54Q10.43 21.63 10.24 21.67Q10.05 21.70 9.91 21.73L9.91 21.73Q9.75 21.75 9.59 21.77L9.59 21.77L9.56 21.77L9.52 21.77L9.47 21.77Q9.38 21.77 9.28 21.77Q9.19 21.77 9.09 21.73L9.09 21.73Q8.98 21.70 8.86 21.66L8.86 21.66Q8.74 21.61 8.64 21.57Q8.53 21.54 8.41 21.47L8.41 21.47Q8.60 20.70 8.71 20.02Q8.81 19.34 8.86 18.82L8.86 18.82Q8.93 18.21 8.95 17.74L8.95 17.74Q8.98 17.13 8.82 16.41Q8.67 15.68 8.36 14.98Q8.04 14.27 7.58 13.66Q7.13 13.05 6.54 12.63L6.54 12.63Q5.95 12.23 5.43 12.12Q4.90 12 4.36 12.05L4.36 12.05Q4.20 12.75 4.05 13.41Q3.91 14.06 3.82 14.67L3.82 14.67Q3.56 16.03 3.33 17.32L3.33 17.32Q3.14 18.42 2.94 19.61Q2.74 20.79 2.65 21.63L2.65 21.63Q2.27 21.82 1.95 21.93Q1.62 22.03 1.36 22.08L1.36 22.08Q1.08 22.15 0.82 22.15ZM10.10 11.74L10.10 11.74Q9.28 11.65 8.54 11.64Q7.80 11.63 7.24 11.63L7.24 11.63Q7.71 11.88 8.07 12.30Q8.44 12.73 8.84 13.27L8.84 13.27Q9.21 13.76 9.45 14.34Q9.68 14.93 9.84 15.47L9.84 15.47Q10.03 14.48 10.24 13.55Q10.45 12.61 10.64 11.79L10.64 11.79Q10.50 11.77 10.37 11.75Q10.24 11.74 10.10 11.74ZM26.48 12.84L26.48 12.84Q25.78 13.88 24.89 14.85Q24 15.82 23.00 16.58Q22.01 17.34 20.96 17.81Q19.92 18.28 18.94 18.28L18.94 18.28Q18.42 18.28 17.82 18.04Q17.23 17.79 16.73 17.27Q16.24 16.76 15.95 15.94Q15.66 15.12 15.77 13.95L15.77 13.95Q15.87 12.98 16.37 11.92Q16.88 10.85 17.61 9.96Q18.35 9.07 19.28 8.48Q20.20 7.90 21.14 7.90L21.14 7.90Q22.03 7.90 22.43 8.34Q22.83 8.79 22.78 9.45L22.78 9.45Q22.71 10.17 22.37 10.78Q22.03 11.39 21.56 11.88Q21.09 12.38 20.57 12.77Q20.04 13.17 19.57 13.50L19.57 13.50Q19.05 13.85 18.59 14.17Q18.12 14.48 17.77 14.74L17.77 14.74Q17.79 15.33 17.98 15.73Q18.16 16.13 18.45 16.37Q18.73 16.62 19.09 16.72Q19.45 16.83 19.83 16.83L19.83 16.83Q20.63 16.83 21.49 16.32Q22.36 15.82 23.19 15.11Q24.02 14.39 24.74 13.62Q25.45 12.84 25.92 12.28L25.92 12.28Q26.09 12.09 26.26 12.06Q26.44 12.02 26.54 12.11Q26.65 12.19 26.65 12.39Q26.65 12.59 26.48 12.84ZM20.48 9.23L20.48 9.23Q20.20 9.23 19.82 9.52Q19.43 9.80 19.05 10.32Q18.68 10.85 18.35 11.61Q18.02 12.38 17.86 13.36L17.86 13.36Q18.14 13.15 18.47 12.93Q18.80 12.70 19.13 12.45L19.13 12.45Q20.13 11.67 20.53 11.09Q20.93 10.50 20.98 10.08L20.98 10.08Q21.02 9.63 20.88 9.43Q20.74 9.23 20.48 9.23ZM24.45 17.34L24.45 17.34Q25.48 13.01 26.10 10.38Q26.72 7.76 27.05 6.38L27.05 6.38Q27.42 4.73 27.56 4.10L27.56 4.10Q27.63 3.66 27.68 3.23L27.68 3.23Q27.73 2.86 27.73 2.46Q27.73 2.06 27.66 1.73L27.66 1.73Q27.84 1.62 28.07 1.55Q28.29 1.48 28.50 1.43L28.50 1.43Q28.76 1.36 29.02 1.31L29.02 1.31Q29.27 1.27 29.48 1.27L29.48 1.27Q29.67 1.27 29.84 1.30Q30 1.34 30.05 1.45L30.05 1.45Q30.19 1.57 30.18 1.92Q30.16 2.27 30.12 2.65L30.12 2.65Q30.02 3.09 29.91 3.61L29.91 3.61Q29.63 4.62 29.13 6.52L29.13 6.52Q28.71 8.13 28.00 10.92Q27.28 13.71 26.20 17.95L26.20 17.95Q26.09 18.07 25.92 18.12Q25.76 18.16 25.62 18.16L25.62 18.16Q25.45 18.16 25.27 18.14L25.27 18.14Q25.10 18.09 24.94 18L24.94 18Q24.80 17.91 24.66 17.75Q24.52 17.60 24.45 17.34ZM42.07 13.05L42.07 13.05Q41.74 13.52 41.23 14.21Q40.71 14.91 40.16 15.60Q39.61 16.29 39.08 16.86Q38.55 17.44 38.20 17.67L38.20 17.67Q37.97 17.81 37.66 17.91Q37.36 18 37.04 18.02Q36.73 18.05 36.45 17.99Q36.16 17.93 35.95 17.79L35.95 17.79Q35.74 17.63 35.60 17.32L35.60 17.32Q35.48 17.06 35.38 16.64Q35.27 16.22 35.30 15.59L35.30 15.59Q34.73 16.52 34.05 17.03Q33.38 17.53 32.77 17.77L32.77 17.77Q32.06 18.02 31.36 18.07L31.36 18.07Q31.03 18.07 30.66 17.85Q30.28 17.63 30.02 17.14Q29.77 16.66 29.70 15.90Q29.63 15.14 29.88 14.09L29.88 14.09Q30.21 12.66 30.93 11.48Q31.64 10.31 32.48 9.48Q33.33 8.65 34.15 8.23Q34.97 7.80 35.51 7.85L35.51 7.85Q36.14 7.97 36.54 8.23L36.54 8.23Q36.87 8.46 36.97 8.92Q37.08 9.38 36.59 10.13L36.59 10.13Q36.91 10.05 37.14 10.03Q37.36 10.01 37.48 10.01L37.48 10.01Q37.62 10.01 37.66 10.03L37.66 10.03Q37.69 10.08 37.69 10.23Q37.69 10.38 37.62 10.78Q37.55 11.18 37.41 11.86Q37.27 12.54 37.03 13.62L37.03 13.62Q36.98 13.83 36.95 14.00Q36.91 14.18 36.88 14.36Q36.84 14.53 36.80 14.77Q36.75 15 36.68 15.35L36.68 15.35Q36.66 15.56 36.67 15.81Q36.68 16.05 36.75 16.27Q36.82 16.48 36.97 16.61Q37.13 16.73 37.41 16.73L37.41 16.73Q37.64 16.73 38.02 16.44Q38.39 16.15 38.81 15.69Q39.23 15.23 39.69 14.68Q40.15 14.13 40.55 13.62Q40.95 13.10 41.26 12.70Q41.58 12.30 41.72 12.12L41.72 12.12Q41.91 11.91 42.09 11.87Q42.28 11.84 42.38 11.98Q42.47 12.12 42.41 12.40Q42.35 12.68 42.07 13.05ZM35.20 14.09L35.20 14.09Q35.32 13.62 35.48 12.98Q35.65 12.35 35.77 11.77Q35.88 11.18 35.94 10.79Q36 10.41 35.91 10.43L35.91 10.43Q35.79 10.45 35.65 10.50L35.65 10.50Q35.53 10.55 35.34 10.57Q35.16 10.59 34.97 10.64L34.97 10.64Q35.16 10.27 35.19 10.02Q35.23 9.77 35.20 9.63L35.20 9.63Q35.18 9.47 35.11 9.38L35.11 9.38Q34.85 9.16 34.21 9.71Q33.56 10.27 32.72 11.74L32.72 11.74Q32.37 12.35 32.16 13.04Q31.95 13.73 31.86 14.34Q31.78 14.95 31.83 15.41Q31.88 15.87 32.02 16.01L32.02 16.01Q32.27 16.27 32.60 16.25Q32.93 16.24 33.27 16.07Q33.61 15.89 33.95 15.61Q34.29 15.33 34.56 15.02Q34.83 14.72 35.00 14.46Q35.18 14.20 35.20 14.09ZM47.95 13.24L47.95 13.24Q47.84 13.97 47.73 14.63Q47.63 15.28 47.60 15.68L47.60 15.68Q47.58 16.27 47.81 16.52Q48.05 16.78 48.33 16.78L48.33 16.78Q48.66 16.78 49.14 16.45Q49.62 16.13 50.16 15.63Q50.70 15.14 51.23 14.55Q51.77 13.97 52.23 13.44Q52.69 12.91 53.00 12.52Q53.32 12.12 53.44 12L53.44 12Q53.58 11.86 53.73 11.84Q53.88 11.81 53.98 11.88Q54.07 11.95 54.07 12.14Q54.07 12.33 53.88 12.61L53.88 12.61Q53.60 13.05 53.16 13.65Q52.71 14.25 52.17 14.88Q51.63 15.52 51.04 16.13Q50.44 16.73 49.84 17.20Q49.24 17.67 48.69 17.96Q48.14 18.26 47.70 18.26L47.70 18.26Q47.37 18.26 47.07 18.07Q46.78 17.88 46.55 17.58Q46.31 17.27 46.18 16.90Q46.05 16.52 46.08 16.15L46.08 16.15Q46.10 15.98 46.15 15.59L46.15 15.59Q45.16 16.69 44.17 17.33Q43.17 17.98 42.26 17.98L42.26 17.98Q41.93 17.98 41.55 17.81Q41.18 17.65 40.89 17.27Q40.59 16.90 40.41 16.29Q40.22 15.68 40.27 14.81L40.27 14.81Q40.34 13.45 40.80 12.23Q41.27 11.02 41.99 10.11Q42.70 9.21 43.61 8.68Q44.51 8.16 45.42 8.16L45.42 8.16Q45.82 8.16 46.15 8.36Q46.48 8.55 46.71 8.87Q46.95 9.19 47.10 9.56Q47.25 9.94 47.32 10.27L47.32 10.27Q47.48 9.59 47.63 8.93Q47.77 8.27 47.91 7.69L47.91 7.69Q48.14 6.82 48.40 5.81L48.40 5.81Q48.63 4.95 48.94 3.82Q49.24 2.70 49.62 1.45L49.62 1.45Q49.85 1.27 50.06 1.17Q50.27 1.08 50.46 1.03L50.46 1.03Q50.67 0.96 50.86 0.96L50.86 0.96Q51.09 0.96 51.28 1.02Q51.47 1.08 51.60 1.32Q51.73 1.57 51.77 2.06Q51.82 2.55 51.77 3.40L51.77 3.40Q51.73 4.43 51.41 5.65Q51.09 6.87 50.58 8.17Q50.06 9.47 49.39 10.77Q48.73 12.07 47.95 13.24ZM46.57 13.55L46.57 13.55Q46.66 13.10 46.75 12.66Q46.83 12.21 46.95 11.74L46.95 11.74Q46.90 11.77 46.86 11.79Q46.83 11.81 46.78 11.84L46.78 11.84Q46.52 11.95 46.43 11.82Q46.34 11.70 46.34 11.41L46.34 11.41Q46.34 11.27 46.31 10.91Q46.29 10.55 46.18 10.16Q46.08 9.77 45.87 9.48Q45.66 9.19 45.28 9.19L45.28 9.19Q44.74 9.19 44.18 9.74Q43.62 10.29 43.13 11.07Q42.63 11.86 42.30 12.75Q41.98 13.64 41.93 14.34L41.93 14.34Q41.88 15.47 42.21 15.96Q42.54 16.45 43.10 16.45L43.10 16.45Q43.52 16.45 44.03 16.13Q44.53 15.80 45.01 15.33Q45.49 14.86 45.90 14.37Q46.31 13.88 46.57 13.55ZM62.72 12.84L62.72 12.84Q62.02 13.88 61.13 14.85Q60.23 15.82 59.24 16.58Q58.24 17.34 57.20 17.81Q56.16 18.28 55.17 18.28L55.17 18.28Q54.66 18.28 54.06 18.04Q53.46 17.79 52.97 17.27Q52.48 16.76 52.18 15.94Q51.89 15.12 52.01 13.95L52.01 13.95Q52.10 12.98 52.61 11.92Q53.11 10.85 53.85 9.96Q54.59 9.07 55.51 8.48Q56.44 7.90 57.38 7.90L57.38 7.90Q58.27 7.90 58.66 8.34Q59.06 8.79 59.02 9.45L59.02 9.45Q58.95 10.17 58.61 10.78Q58.27 11.39 57.80 11.88Q57.33 12.38 56.80 12.77Q56.27 13.17 55.80 13.50L55.80 13.50Q55.29 13.85 54.82 14.17Q54.35 14.48 54 14.74L54 14.74Q54.02 15.33 54.21 15.73Q54.40 16.13 54.68 16.37Q54.96 16.62 55.32 16.72Q55.69 16.83 56.06 16.83L56.06 16.83Q56.86 16.83 57.73 16.32Q58.59 15.82 59.43 15.11Q60.26 14.39 60.97 13.62Q61.69 12.84 62.16 12.28L62.16 12.28Q62.32 12.09 62.50 12.06Q62.67 12.02 62.78 12.11Q62.88 12.19 62.88 12.39Q62.88 12.59 62.72 12.84ZM56.72 9.23L56.72 9.23Q56.44 9.23 56.05 9.52Q55.66 9.80 55.29 10.32Q54.91 10.85 54.59 11.61Q54.26 12.38 54.09 13.36L54.09 13.36Q54.38 13.15 54.70 12.93Q55.03 12.70 55.36 12.45L55.36 12.45Q56.37 11.67 56.77 11.09Q57.16 10.50 57.21 10.08L57.21 10.08Q57.26 9.63 57.12 9.43Q56.98 9.23 56.72 9.23ZM60.14 17.60L60.14 17.60Q59.98 17.86 59.78 17.94Q59.58 18.02 59.43 17.96Q59.27 17.91 59.23 17.72Q59.18 17.53 59.32 17.25L59.32 17.25Q59.39 17.11 59.64 16.62Q59.88 16.13 60.22 15.43Q60.56 14.74 60.96 13.93Q61.36 13.13 61.72 12.40Q62.09 11.67 62.39 11.10Q62.70 10.52 62.84 10.27L62.84 10.27Q62.58 10.03 62.48 9.93Q62.39 9.82 62.34 9.47L62.34 9.47Q62.30 9.16 62.48 8.67Q62.67 8.18 62.98 7.72Q63.28 7.27 63.66 6.94Q64.03 6.61 64.38 6.61L64.38 6.61Q65.04 6.61 65.31 7.03Q65.58 7.45 65.63 7.90L65.63 7.90Q65.67 8.20 65.58 8.67Q65.48 9.14 65.23 9.52L65.23 9.52Q65.30 9.56 65.41 9.62Q65.53 9.68 65.79 9.68L65.79 9.68Q66.16 9.68 66.32 9.63Q66.47 9.59 66.80 9.59L66.80 9.59Q67.20 9.59 67.45 9.79Q67.71 9.98 67.88 10.28Q68.04 10.57 68.12 10.91Q68.20 11.25 68.23 11.53L68.23 11.53Q68.30 12.12 67.92 12.75Q67.55 13.38 67.01 14.13L67.01 14.13Q66.68 14.60 66.35 15.19Q66.02 15.77 66.07 16.24L66.07 16.24Q66.12 16.55 66.23 16.73Q66.35 16.92 66.89 16.92L66.89 16.92Q67.29 16.92 67.77 16.63Q68.25 16.34 68.75 15.88Q69.26 15.42 69.75 14.87Q70.24 14.32 70.66 13.79Q71.09 13.27 71.38 12.84Q71.67 12.42 71.81 12.23L71.81 12.23Q71.93 12.05 72.12 11.98Q72.30 11.91 72.45 11.98Q72.59 12.05 72.62 12.26Q72.66 12.47 72.45 12.82L72.45 12.82Q72.30 13.05 71.96 13.57Q71.63 14.09 71.14 14.72Q70.66 15.35 70.08 16.02Q69.49 16.69 68.85 17.24Q68.20 17.79 67.56 18.14Q66.91 18.49 66.33 18.49L66.33 18.49Q65.72 18.49 65.32 18.26Q64.92 18.02 64.68 17.68Q64.43 17.34 64.32 16.93Q64.22 16.52 64.24 16.17L64.24 16.17Q64.27 15.89 64.39 15.57Q64.52 15.26 64.70 14.92Q64.88 14.58 65.07 14.24Q65.27 13.90 65.44 13.57L65.44 13.57Q65.84 12.89 66.08 12.41Q66.33 11.93 66.33 11.60L66.33 11.60Q66.33 11.39 66.23 11.23Q66.14 11.06 65.93 11.06L65.93 11.06Q65.79 11.06 65.73 11.07Q65.67 11.09 65.61 11.09Q65.55 11.09 65.45 11.10Q65.34 11.11 65.13 11.11L65.13 11.11Q64.83 11.11 64.62 11.02Q64.41 10.92 64.22 10.88L64.22 10.88Q64.13 11.04 63.80 11.58Q63.47 12.12 63.04 12.84Q62.60 13.57 62.12 14.37Q61.64 15.16 61.22 15.86Q60.80 16.55 60.50 17.03Q60.21 17.51 60.14 17.60ZM72.70 8.91L72.70 8.91Q72.82 8.77 73.15 8.67Q73.48 8.58 73.83 8.52Q74.18 8.46 74.47 8.45Q74.77 8.44 74.81 8.46L74.81 8.46Q74.84 8.48 74.70 8.95Q74.55 9.42 74.34 10.05Q74.13 10.69 73.90 11.36Q73.66 12.02 73.55 12.45L73.55 12.45Q73.43 12.87 73.27 13.39Q73.10 13.92 72.97 14.43Q72.84 14.93 72.80 15.38Q72.75 15.82 72.87 16.05L72.87 16.05Q72.98 16.34 73.13 16.44Q73.27 16.55 73.43 16.55L73.43 16.55Q73.90 16.55 74.61 16.03Q75.33 15.52 76.07 14.80Q76.80 14.09 77.44 13.35Q78.07 12.61 78.38 12.16L78.38 12.16Q78.56 11.93 78.76 11.86Q78.96 11.79 79.09 11.88Q79.22 11.98 79.23 12.19Q79.24 12.40 79.08 12.68L79.08 12.68Q78.70 13.34 77.98 14.24Q77.25 15.14 76.43 15.97Q75.61 16.80 74.82 17.39Q74.04 17.98 73.55 18L73.55 18Q73.15 18.02 72.76 17.87Q72.38 17.72 72.06 17.45Q71.74 17.18 71.53 16.82Q71.32 16.45 71.30 16.05L71.30 16.05Q71.23 15.47 71.30 14.45Q71.37 13.43 71.55 12.36Q71.74 11.30 72.04 10.34Q72.33 9.38 72.70 8.91ZM76.85 3.30L76.85 3.30Q77.06 3.14 77.32 3.33Q77.58 3.52 77.70 3.89L77.70 3.89Q77.86 4.38 77.72 4.63Q77.58 4.88 77.30 5.06L77.30 5.06Q77.16 5.18 76.77 5.39Q76.38 5.60 75.93 5.82Q75.47 6.05 75.02 6.22Q74.58 6.40 74.34 6.42L74.34 6.42Q74.09 6.45 73.95 6.36Q73.80 6.28 73.72 6.16Q73.64 6.05 73.62 5.89Q73.59 5.74 73.59 5.63L73.59 5.63Q75.42 4.36 76.15 3.82L76.15 3.82Q76.57 3.52 76.85 3.30ZM89.39 13.05L89.39 13.05Q89.06 13.52 88.55 14.21Q88.03 14.91 87.48 15.60Q86.93 16.29 86.40 16.86Q85.88 17.44 85.52 17.67L85.52 17.67Q85.29 17.81 84.98 17.91Q84.68 18 84.36 18.02Q84.05 18.05 83.77 17.99Q83.48 17.93 83.27 17.79L83.27 17.79Q83.06 17.63 82.92 17.32L82.92 17.32Q82.80 17.06 82.70 16.64Q82.59 16.22 82.62 15.59L82.62 15.59Q82.05 16.52 81.38 17.03Q80.70 17.53 80.09 17.77L80.09 17.77Q79.38 18.02 78.68 18.07L78.68 18.07Q78.35 18.07 77.98 17.85Q77.60 17.63 77.34 17.14Q77.09 16.66 77.02 15.90Q76.95 15.14 77.20 14.09L77.20 14.09Q77.53 12.66 78.25 11.48Q78.96 10.31 79.80 9.48Q80.65 8.65 81.47 8.23Q82.29 7.80 82.83 7.85L82.83 7.85Q83.46 7.97 83.86 8.23L83.86 8.23Q84.19 8.46 84.29 8.92Q84.40 9.38 83.91 10.13L83.91 10.13Q84.23 10.05 84.46 10.03Q84.68 10.01 84.80 10.01L84.80 10.01Q84.94 10.01 84.98 10.03L84.98 10.03Q85.01 10.08 85.01 10.23Q85.01 10.38 84.94 10.78Q84.87 11.18 84.73 11.86Q84.59 12.54 84.35 13.62L84.35 13.62Q84.30 13.83 84.27 14.00Q84.23 14.18 84.20 14.36Q84.16 14.53 84.12 14.77Q84.07 15 84 15.35L84 15.35Q83.98 15.56 83.99 15.81Q84 16.05 84.07 16.27Q84.14 16.48 84.29 16.61Q84.45 16.73 84.73 16.73L84.73 16.73Q84.96 16.73 85.34 16.44Q85.71 16.15 86.13 15.69Q86.55 15.23 87.01 14.68Q87.47 14.13 87.87 13.62Q88.27 13.10 88.58 12.70Q88.90 12.30 89.04 12.12L89.04 12.12Q89.23 11.91 89.41 11.87Q89.60 11.84 89.70 11.98Q89.79 12.12 89.73 12.40Q89.67 12.68 89.39 13.05ZM82.52 14.09L82.52 14.09Q82.64 13.62 82.80 12.98Q82.97 12.35 83.09 11.77Q83.20 11.18 83.26 10.79Q83.32 10.41 83.23 10.43L83.23 10.43Q83.11 10.45 82.97 10.50L82.97 10.50Q82.85 10.55 82.66 10.57Q82.48 10.59 82.29 10.64L82.29 10.64Q82.48 10.27 82.51 10.02Q82.55 9.77 82.52 9.63L82.52 9.63Q82.50 9.47 82.43 9.38L82.43 9.38Q82.17 9.16 81.53 9.71Q80.88 10.27 80.04 11.74L80.04 11.74Q79.69 12.35 79.48 13.04Q79.27 13.73 79.18 14.34Q79.10 14.95 79.15 15.41Q79.20 15.87 79.34 16.01L79.34 16.01Q79.59 16.27 79.92 16.25Q80.25 16.24 80.59 16.07Q80.93 15.89 81.27 15.61Q81.61 15.33 81.88 15.02Q82.15 14.72 82.32 14.46Q82.50 14.20 82.52 14.09ZM99.68 22.29L99.68 22.29Q98.53 22.29 97.62 21.69Q96.70 21.09 96.07 20.06Q95.44 19.03 95.14 17.67Q94.85 16.31 94.92 14.79L94.92 14.79Q95.02 13.17 95.41 11.45Q95.81 9.73 96.49 8.09Q97.17 6.45 98.07 4.97Q98.98 3.49 100.07 2.39Q101.16 1.29 102.40 0.64Q103.64 0 105 0L105 0Q105.89 0 106.50 0.45Q107.11 0.89 107.45 1.61Q107.79 2.32 107.88 3.21Q107.98 4.10 107.87 4.98Q107.77 5.86 107.47 6.67Q107.18 7.48 106.76 7.99L106.76 7.99Q106.22 8.67 105.79 8.71Q105.35 8.74 104.95 8.46L104.95 8.46Q104.79 8.32 104.63 8.13L104.63 8.13Q104.46 7.97 104.27 7.72Q104.09 7.48 103.88 7.10L103.88 7.10Q104.32 6.94 104.70 6.55Q105.07 6.16 105.34 5.67Q105.61 5.18 105.76 4.63Q105.91 4.08 105.94 3.54L105.94 3.54Q105.96 3.12 105.91 2.71Q105.87 2.30 105.73 1.98Q105.59 1.66 105.34 1.46Q105.09 1.27 104.72 1.27L104.72 1.27Q103.78 1.27 102.89 1.98Q102 2.70 101.21 3.88Q100.43 5.06 99.76 6.59Q99.09 8.11 98.60 9.73Q98.11 11.34 97.80 12.91Q97.50 14.48 97.43 15.77L97.43 15.77Q97.34 17.39 97.55 18.40Q97.76 19.41 98.12 19.98Q98.48 20.55 98.91 20.75Q99.33 20.95 99.68 20.95L99.68 20.95Q100.34 20.95 101.16 20.34Q101.98 19.73 102.73 18.69Q103.48 17.65 104.07 16.29Q104.67 14.93 104.93 13.43L104.93 13.43Q104.34 13.43 103.75 13.44Q103.15 13.45 102.61 13.48Q102.07 13.50 101.65 13.54Q101.23 13.57 100.99 13.62L100.99 13.62Q100.83 13.55 100.77 13.45Q100.71 13.36 100.66 13.24L100.66 13.24Q100.62 13.15 100.62 13.01L100.62 13.01Q100.62 12.87 100.66 12.75L100.66 12.75Q100.71 12.63 100.78 12.50Q100.85 12.38 100.97 12.23L100.97 12.23Q101.72 12.09 102.45 12Q103.17 11.91 103.96 11.85Q104.74 11.79 105.64 11.75Q106.55 11.72 107.67 11.70L107.67 11.70Q108.14 11.67 108.25 11.81Q108.35 11.95 108.16 12.52L108.16 12.52Q108.02 12.96 107.80 13.24Q107.58 13.52 107.06 13.48L107.06 13.48Q106.90 13.48 106.80 13.45L106.80 13.45Q106.59 14.84 105.91 16.38Q105.23 17.93 104.25 19.24Q103.27 20.55 102.08 21.42Q100.90 22.29 99.68 22.29ZM112.15 18.09L112.15 18.09Q111.26 18.09 110.70 17.81Q110.13 17.53 109.82 17.12Q109.50 16.71 109.37 16.23Q109.24 15.75 109.24 15.35L109.24 15.35Q109.24 14.65 109.36 13.86Q109.48 13.08 109.64 12.41Q109.80 11.74 109.93 11.27Q110.06 10.80 110.11 10.69L110.11 10.69Q110.32 10.01 110.66 9.50Q111 9 111.61 8.81L111.61 8.81Q111.84 8.77 112.10 8.72L112.10 8.72Q112.31 8.70 112.54 8.70Q112.76 8.70 112.95 8.77L112.95 8.77Q112.31 10.38 111.95 11.46Q111.59 12.54 111.40 13.22L111.40 13.22Q111.19 13.99 111.14 14.46L111.14 14.46Q111.02 15.52 111.33 16.05Q111.63 16.59 112.57 16.59L112.57 16.59Q113.18 16.59 113.74 16.14Q114.30 15.68 114.77 14.95L114.77 14.95Q114.70 14.58 114.70 14.18L114.70 14.18Q114.70 13.43 114.83 12.71Q114.96 12 115.14 11.38Q115.31 10.76 115.51 10.27Q115.71 9.77 115.85 9.49L115.85 9.49Q116.11 8.93 116.32 8.80Q116.53 8.67 117 8.65L117 8.65Q117.19 8.63 117.32 8.64Q117.45 8.65 117.54 8.67L117.54 8.67Q117.82 8.74 117.82 8.95L117.82 8.95Q117.82 9.33 117.77 10.08Q117.73 10.83 117.49 11.63L117.49 11.63Q117.33 12.28 117.18 12.74Q117.02 13.20 116.88 13.51Q116.74 13.83 116.60 14.03Q116.46 14.23 116.34 14.39L116.34 14.39Q116.39 15.09 116.46 15.52Q116.53 15.94 116.64 16.16Q116.74 16.38 116.89 16.46Q117.05 16.55 117.23 16.55L117.23 16.55Q117.56 16.55 118.01 16.23Q118.45 15.91 118.93 15.43Q119.41 14.95 119.89 14.38Q120.38 13.80 120.77 13.29Q121.17 12.77 121.45 12.39Q121.73 12 121.80 11.91L121.80 11.91Q121.97 11.70 122.12 11.65Q122.27 11.60 122.37 11.68Q122.46 11.77 122.47 11.94Q122.48 12.12 122.37 12.33L122.37 12.33Q121.90 13.22 121.21 14.21Q120.52 15.21 119.73 16.05Q118.95 16.90 118.15 17.46Q117.35 18.02 116.65 18.02L116.65 18.02Q116.02 18.02 115.65 17.59Q115.29 17.16 115.03 16.34L115.03 16.34Q114.49 17.18 113.77 17.64Q113.04 18.09 112.15 18.09ZM125.65 3.91L125.65 3.91Q125.58 4.17 125.38 4.42Q125.18 4.66 124.93 4.82Q124.69 4.97 124.43 5.02Q124.17 5.06 124.01 4.92L124.01 4.92Q123.52 4.55 123.49 4.11Q123.47 3.68 123.70 3.29Q123.94 2.91 124.29 2.64Q124.64 2.37 124.90 2.32L124.90 2.32Q125.16 2.27 125.33 2.43Q125.51 2.58 125.60 2.82Q125.70 3.07 125.71 3.38Q125.72 3.68 125.65 3.91ZM122.41 8.91L122.41 8.91Q122.53 8.77 122.86 8.67Q123.19 8.58 123.54 8.52Q123.89 8.46 124.18 8.45Q124.48 8.44 124.52 8.46L124.52 8.46Q124.55 8.48 124.41 8.95Q124.27 9.42 124.05 10.05Q123.84 10.69 123.61 11.36Q123.38 12.02 123.26 12.45L123.26 12.45Q123.14 12.87 122.98 13.39Q122.81 13.92 122.68 14.43Q122.55 14.93 122.51 15.38Q122.46 15.82 122.58 16.05L122.58 16.05Q122.70 16.34 122.84 16.44Q122.98 16.55 123.14 16.55L123.14 16.55Q123.61 16.55 124.32 16.03Q125.04 15.52 125.78 14.80Q126.52 14.09 127.15 13.35Q127.78 12.61 128.09 12.16L128.09 12.16Q128.27 11.93 128.47 11.86Q128.67 11.79 128.80 11.88Q128.93 11.98 128.94 12.19Q128.95 12.40 128.79 12.68L128.79 12.68Q128.41 13.34 127.69 14.24Q126.96 15.14 126.14 15.97Q125.32 16.80 124.54 17.39Q123.75 17.98 123.26 18L123.26 18Q122.86 18.02 122.47 17.87Q122.09 17.72 121.77 17.45Q121.45 17.18 121.24 16.82Q121.03 16.45 121.01 16.05L121.01 16.05Q120.94 15.47 121.01 14.45Q121.08 13.43 121.27 12.36Q121.45 11.30 121.75 10.34Q122.04 9.38 122.41 8.91ZM135.73 11.79L135.73 11.79Q135.82 11.65 135.97 11.61Q136.13 11.58 136.22 11.65Q136.31 11.72 136.32 11.88Q136.34 12.05 136.20 12.33L136.20 12.33Q135.73 13.22 134.96 14.25Q134.20 15.28 133.36 16.18Q132.52 17.09 131.72 17.67Q130.92 18.26 130.38 18.26L130.38 18.26Q129.61 18.26 129.09 17.95Q128.58 17.65 128.29 17.20Q127.99 16.76 127.88 16.23Q127.76 15.70 127.80 15.26L127.80 15.26Q127.83 14.88 127.97 13.91Q128.11 12.94 128.34 11.66Q128.58 10.38 128.87 8.92Q129.16 7.45 129.49 6.09L129.49 6.09Q129.09 6.14 128.70 6.19Q128.30 6.23 127.97 6.23L127.97 6.23Q127.22 6.23 126.55 6.06Q125.88 5.88 125.55 5.72L125.55 5.72Q125.37 5.63 125.39 5.45Q125.41 5.27 125.53 5.10Q125.65 4.92 125.82 4.79Q126 4.66 126.14 4.66L126.14 4.66Q126.59 4.71 127.10 4.75Q127.62 4.78 128.23 4.76L128.23 4.76Q128.67 4.73 129.08 4.69Q129.49 4.64 129.89 4.57L129.89 4.57Q130.20 3.45 130.49 2.61Q130.78 1.78 131.02 1.45L131.02 1.45Q131.09 1.34 131.33 1.25Q131.58 1.17 131.86 1.14Q132.14 1.10 132.40 1.14Q132.66 1.17 132.77 1.31L132.77 1.31Q132.89 1.50 132.87 2.27Q132.84 3.05 132.61 4.24L132.61 4.24Q133.59 4.24 134.36 4.35Q135.12 4.45 135.66 4.58Q136.20 4.71 136.52 4.84Q136.85 4.97 137.02 5.02L137.02 5.02Q137.18 5.06 137.19 5.25Q137.20 5.44 137.12 5.64Q137.04 5.84 136.85 5.98Q136.66 6.12 136.43 6.07L136.43 6.07Q136.20 6.05 135.90 5.98Q135.61 5.91 135.20 5.86Q134.79 5.81 134.23 5.77Q133.66 5.72 132.91 5.72L132.91 5.72Q132.77 5.72 132.60 5.73Q132.42 5.74 132.23 5.74L132.23 5.74Q132.14 6.12 132.06 6.48Q131.98 6.84 131.84 7.24L131.84 7.24Q131.53 8.18 131.13 9.28L131.13 9.28Q130.78 10.24 130.29 11.48Q129.80 12.73 129.19 14.13L129.19 14.13Q129.05 15.14 129.22 15.67Q129.40 16.20 129.66 16.43L129.66 16.43Q129.96 16.69 130.41 16.71L130.41 16.71Q130.76 16.76 131.26 16.46Q131.77 16.17 132.30 15.68Q132.84 15.19 133.39 14.60Q133.95 14.02 134.41 13.45Q134.88 12.89 135.23 12.43Q135.59 11.98 135.73 11.79ZM141.26 13.99L141.26 13.99Q141.02 14.88 140.63 15.66Q140.23 16.43 139.68 16.99Q139.13 17.55 138.43 17.87Q137.74 18.19 136.92 18.19L136.92 18.19Q135.96 18.19 135.41 17.78Q134.86 17.37 134.59 16.76Q134.32 16.15 134.26 15.42Q134.20 14.70 134.20 14.06L134.20 14.06Q134.20 13.62 134.31 13.08Q134.41 12.54 134.60 11.98Q134.79 11.41 135.08 10.85Q135.38 10.29 135.77 9.82L135.77 9.82Q135.91 9.42 136.21 9.12Q136.50 8.81 136.89 8.61Q137.27 8.41 137.72 8.31Q138.16 8.20 138.59 8.20L138.59 8.20Q138.66 8.20 138.71 8.23Q138.77 8.25 138.84 8.27L138.84 8.27Q139.15 8.30 139.61 8.51Q140.06 8.72 140.50 9.14Q140.93 9.56 141.23 10.21Q141.54 10.85 141.54 11.77L141.54 11.77Q141.54 11.95 141.52 12.22Q141.49 12.49 141.47 12.68L141.47 12.68Q142.01 12.47 142.59 12.16Q143.18 11.86 143.73 11.52Q144.28 11.18 144.75 10.83Q145.22 10.48 145.50 10.20L145.50 10.20Q145.73 9.98 145.90 9.96Q146.06 9.94 146.13 10.05Q146.20 10.17 146.16 10.38Q146.11 10.59 145.90 10.85L145.90 10.85Q145.78 10.99 145.30 11.41Q144.82 11.84 144.16 12.33Q143.51 12.82 142.73 13.29Q141.96 13.76 141.26 13.99ZM137.30 10.43L137.30 10.43Q137.23 10.64 137.23 10.88L137.23 10.88Q137.23 11.25 137.27 11.66Q137.32 12.07 137.51 12.40Q137.70 12.73 138.11 12.95Q138.52 13.17 139.24 13.17L139.24 13.17Q139.36 13.17 139.48 13.16Q139.59 13.15 139.71 13.13L139.71 13.13Q139.78 12.82 139.84 12.57Q139.90 12.33 139.90 12.14L139.90 12.14Q139.95 11.70 139.90 11.23Q139.85 10.76 139.72 10.37Q139.59 9.98 139.39 9.74Q139.20 9.49 138.91 9.49L138.91 9.49Q138.47 9.49 138.06 9.74Q137.65 9.98 137.30 10.43ZM135.80 14.55L135.80 14.55Q135.80 14.98 135.84 15.39Q135.89 15.80 136.03 16.11Q136.17 16.43 136.41 16.63Q136.64 16.83 137.02 16.83L137.02 16.83Q137.44 16.83 137.79 16.63Q138.14 16.43 138.42 16.11Q138.70 15.80 138.93 15.39Q139.15 14.98 139.31 14.53L139.31 14.53Q139.15 14.55 139.00 14.57Q138.84 14.58 138.66 14.58L138.66 14.58Q137.77 14.58 137.12 14.05Q136.48 13.52 136.13 12.70L136.13 12.70Q135.98 13.20 135.89 13.66Q135.80 14.13 135.80 14.55Z" transform="translate(36, 6.856)"></path></svg>